<mxfile host="app.diagrams.net" modified="2023-03-12T14:08:54.651Z" agent="5.0 (Windows NT 10.0; Win64; x64) AppleWebKit/537.36 (KHTML, like Gecko) Chrome/111.0.0.0 Safari/537.36" etag="gJWejcXxucYHMvjJUvaF" version="21.0.6" type="github">
  <diagram name="第 1 页" id="pwfyxZTgKi6sXaPun0su">
    <mxGraphModel dx="1562" dy="829" grid="1" gridSize="10" guides="1" tooltips="1" connect="1" arrows="1" fold="1" page="1" pageScale="1" pageWidth="900" pageHeight="1600" math="0" shadow="0">
      <root>
        <mxCell id="0" />
        <mxCell id="1" parent="0" />
        <mxCell id="a0bpHqeh68lBd6Eq7jiz-10" style="edgeStyle=orthogonalEdgeStyle;rounded=0;orthogonalLoop=1;jettySize=auto;html=1;" parent="1" source="VlZYDp3eKhAwGHprqxxx-22" target="a0bpHqeh68lBd6Eq7jiz-2" edge="1">
          <mxGeometry relative="1" as="geometry" />
        </mxCell>
        <mxCell id="VlZYDp3eKhAwGHprqxxx-22" value="www" style="ellipse;shape=cloud;whiteSpace=wrap;html=1;fillColor=#66B2FF;" parent="1" vertex="1">
          <mxGeometry x="60" y="80" width="120" height="80" as="geometry" />
        </mxCell>
        <mxCell id="a0bpHqeh68lBd6Eq7jiz-5" style="edgeStyle=orthogonalEdgeStyle;rounded=0;orthogonalLoop=1;jettySize=auto;html=1;entryX=0;entryY=0.5;entryDx=0;entryDy=0;" parent="1" source="a0bpHqeh68lBd6Eq7jiz-2" target="a0bpHqeh68lBd6Eq7jiz-4" edge="1">
          <mxGeometry relative="1" as="geometry" />
        </mxCell>
        <mxCell id="a0bpHqeh68lBd6Eq7jiz-2" value="光猫" style="fontColor=#0066CC;verticalAlign=top;verticalLabelPosition=bottom;labelPosition=center;align=center;html=1;outlineConnect=0;fillColor=#CCCCCC;strokeColor=#6881B3;gradientColor=none;gradientDirection=north;strokeWidth=2;shape=mxgraph.networks.modem;" parent="1" vertex="1">
          <mxGeometry x="260" y="105" width="100" height="30" as="geometry" />
        </mxCell>
        <mxCell id="a0bpHqeh68lBd6Eq7jiz-15" style="rounded=0;orthogonalLoop=1;jettySize=auto;html=1;exitX=0;exitY=1;exitDx=0;exitDy=0;entryX=1;entryY=0;entryDx=0;entryDy=0;" parent="1" source="a0bpHqeh68lBd6Eq7jiz-4" target="a0bpHqeh68lBd6Eq7jiz-11" edge="1">
          <mxGeometry relative="1" as="geometry" />
        </mxCell>
        <mxCell id="a0bpHqeh68lBd6Eq7jiz-16" style="rounded=0;orthogonalLoop=1;jettySize=auto;html=1;exitX=1;exitY=1;exitDx=0;exitDy=0;entryX=0;entryY=0;entryDx=0;entryDy=0;" parent="1" source="a0bpHqeh68lBd6Eq7jiz-4" target="a0bpHqeh68lBd6Eq7jiz-13" edge="1">
          <mxGeometry relative="1" as="geometry" />
        </mxCell>
        <mxCell id="xhiNw3Pd70VV7vT-DnqC-2" style="edgeStyle=orthogonalEdgeStyle;rounded=0;orthogonalLoop=1;jettySize=auto;html=1;entryX=0.5;entryY=0;entryDx=0;entryDy=0;" edge="1" parent="1" source="a0bpHqeh68lBd6Eq7jiz-4" target="a0bpHqeh68lBd6Eq7jiz-12">
          <mxGeometry relative="1" as="geometry" />
        </mxCell>
        <mxCell id="a0bpHqeh68lBd6Eq7jiz-4" value="AC+POE一体" style="image;html=1;image=img/lib/clip_art/networking/Switch_128x128.png" parent="1" vertex="1">
          <mxGeometry x="445" y="80" width="80" height="80" as="geometry" />
        </mxCell>
        <mxCell id="a0bpHqeh68lBd6Eq7jiz-6" value="桥接" style="text;html=1;align=center;verticalAlign=middle;resizable=0;points=[];autosize=1;strokeColor=none;fillColor=none;" parent="1" vertex="1">
          <mxGeometry x="370" y="95" width="50" height="30" as="geometry" />
        </mxCell>
        <mxCell id="a0bpHqeh68lBd6Eq7jiz-8" value="拨号" style="text;html=1;align=center;verticalAlign=middle;resizable=0;points=[];autosize=1;strokeColor=none;fillColor=none;" parent="1" vertex="1">
          <mxGeometry x="450" y="65" width="50" height="30" as="geometry" />
        </mxCell>
        <mxCell id="a0bpHqeh68lBd6Eq7jiz-11" value="" style="image;html=1;image=img/lib/clip_art/networking/Wireless_Router_128x128.png" parent="1" vertex="1">
          <mxGeometry x="235" y="250" width="80" height="80" as="geometry" />
        </mxCell>
        <mxCell id="a0bpHqeh68lBd6Eq7jiz-13" value="" style="image;html=1;image=img/lib/clip_art/networking/Wireless_Router_128x128.png" parent="1" vertex="1">
          <mxGeometry x="640" y="260" width="80" height="80" as="geometry" />
        </mxCell>
        <mxCell id="a0bpHqeh68lBd6Eq7jiz-17" value="AP" style="text;html=1;align=center;verticalAlign=middle;resizable=0;points=[];autosize=1;strokeColor=none;fillColor=none;" parent="1" vertex="1">
          <mxGeometry x="275" y="320" width="40" height="30" as="geometry" />
        </mxCell>
        <mxCell id="a0bpHqeh68lBd6Eq7jiz-18" value="AP" style="text;html=1;align=center;verticalAlign=middle;resizable=0;points=[];autosize=1;strokeColor=none;fillColor=none;" parent="1" vertex="1">
          <mxGeometry x="500" y="330" width="40" height="30" as="geometry" />
        </mxCell>
        <mxCell id="a0bpHqeh68lBd6Eq7jiz-19" value="AP" style="text;html=1;align=center;verticalAlign=middle;resizable=0;points=[];autosize=1;strokeColor=none;fillColor=none;" parent="1" vertex="1">
          <mxGeometry x="710" y="310" width="40" height="30" as="geometry" />
        </mxCell>
        <mxCell id="a0bpHqeh68lBd6Eq7jiz-20" value="光纤" style="text;html=1;align=center;verticalAlign=middle;resizable=0;points=[];autosize=1;strokeColor=none;fillColor=none;" parent="1" vertex="1">
          <mxGeometry x="185" y="95" width="50" height="30" as="geometry" />
        </mxCell>
        <mxCell id="xhiNw3Pd70VV7vT-DnqC-9" style="edgeStyle=orthogonalEdgeStyle;rounded=0;orthogonalLoop=1;jettySize=auto;html=1;" edge="1" parent="1" source="a0bpHqeh68lBd6Eq7jiz-12" target="xhiNw3Pd70VV7vT-DnqC-5">
          <mxGeometry relative="1" as="geometry" />
        </mxCell>
        <mxCell id="a0bpHqeh68lBd6Eq7jiz-12" value="" style="image;html=1;image=img/lib/clip_art/networking/Wireless_Router_128x128.png" parent="1" vertex="1">
          <mxGeometry x="445" y="270" width="80" height="80" as="geometry" />
        </mxCell>
        <mxCell id="xhiNw3Pd70VV7vT-DnqC-3" value="" style="outlineConnect=0;dashed=0;verticalLabelPosition=bottom;verticalAlign=top;align=center;html=1;shape=mxgraph.aws3.mobile_client;fillColor=#D2D3D3;gradientColor=none;" vertex="1" parent="1">
          <mxGeometry x="234.5" y="413.5" width="40.5" height="63" as="geometry" />
        </mxCell>
        <mxCell id="xhiNw3Pd70VV7vT-DnqC-4" value="" style="html=1;verticalLabelPosition=bottom;align=center;labelBackgroundColor=#ffffff;verticalAlign=top;strokeWidth=2;strokeColor=#0080F0;shadow=0;dashed=0;shape=mxgraph.ios7.icons.wifi;pointerEvents=1" vertex="1" parent="1">
          <mxGeometry x="240.4" y="390" width="29.7" height="21" as="geometry" />
        </mxCell>
        <mxCell id="xhiNw3Pd70VV7vT-DnqC-5" value="" style="fontColor=#0066CC;verticalAlign=top;verticalLabelPosition=bottom;labelPosition=center;align=center;html=1;outlineConnect=0;fillColor=#CCCCCC;strokeColor=#6881B3;gradientColor=none;gradientDirection=north;strokeWidth=2;shape=mxgraph.networks.nas_filer;" vertex="1" parent="1">
          <mxGeometry x="435" y="427.5" width="100" height="35" as="geometry" />
        </mxCell>
        <mxCell id="xhiNw3Pd70VV7vT-DnqC-6" value="" style="verticalLabelPosition=bottom;html=1;verticalAlign=top;align=center;strokeColor=none;fillColor=#00BEF2;shape=mxgraph.azure.laptop;pointerEvents=1;" vertex="1" parent="1">
          <mxGeometry x="650" y="420" width="80" height="50" as="geometry" />
        </mxCell>
        <mxCell id="xhiNw3Pd70VV7vT-DnqC-10" value="Nas" style="text;html=1;align=center;verticalAlign=middle;resizable=0;points=[];autosize=1;strokeColor=none;fillColor=none;" vertex="1" parent="1">
          <mxGeometry x="465" y="462.5" width="40" height="30" as="geometry" />
        </mxCell>
      </root>
    </mxGraphModel>
  </diagram>
</mxfile>
